<?xml version="1.0"?>
<svg xmlns="http://www.w3.org/2000/svg" viewBox="0 0 32 32" width="512" height="512"><g id="cpu_electro_component_processor" data-name="cpu, electro, component, processor"><path d="M12,13v6a1,1,0,0,0,1,1h6a1,1,0,0,0,1-1V13a1,1,0,0,0-1-1H13A1,1,0,0,0,12,13Zm2,1h4v4H14Z"/><circle cx="10" cy="10" r="1"/><circle cx="22" cy="10" r="1"/><circle cx="22" cy="22" r="1"/><circle cx="10" cy="22" r="1"/><path d="M28,13a1,1,0,0,0,0-2H27V9h1a1,1,0,0,0,0-2H26.8149A2.8765,2.8765,0,0,0,25,5.1851V4a1,1,0,0,0-2,0V5H21V4a1,1,0,0,0-2,0V6a1,1,0,0,0,1,1h4a1,1,0,0,1,1,1V24a1,1,0,0,1-1,1H8a1,1,0,0,1-1-1V8A1,1,0,0,1,8,7h8a1,1,0,0,0,1-1V4a1,1,0,0,0-2,0V5H13V4a1,1,0,0,0-2,0V5H9V4A1,1,0,0,0,7,4V5.1733A2.93,2.93,0,0,0,5.1851,7H4A1,1,0,0,0,4,9H5v2H4a1,1,0,0,0,0,2H5v2H4a1,1,0,0,0,0,2H5v2H4a1,1,0,0,0,0,2H5v2H4a1,1,0,0,0,0,2H5.1851A2.8765,2.8765,0,0,0,7,26.8149V28a1,1,0,0,0,2,0V27h2v1a1,1,0,0,0,2,0V27h2v1a1,1,0,0,0,2,0V27h2v1a1,1,0,0,0,2,0V27h2v1a1,1,0,0,0,2,0V26.8149A2.8765,2.8765,0,0,0,26.8149,25H28a1,1,0,0,0,0-2H27V21h1a1,1,0,0,0,0-2H27V17h1a1,1,0,0,0,0-2H27V13Z"/></g></svg>
