<?xml version="1.0" standalone="no"?>
<!DOCTYPE svg PUBLIC "-//W3C//DTD SVG 20010904//EN"
 "http://www.w3.org/TR/2001/REC-SVG-20010904/DTD/svg10.dtd">
<svg version="1.0" xmlns="http://www.w3.org/2000/svg"
 width="814.000000pt" height="814.000000pt" viewBox="0 0 814.000000 814.000000"
 preserveAspectRatio="xMidYMid meet">
<metadata>
Created by potrace 1.14, written by Peter Selinger 2001-2017
</metadata>
<g transform="translate(0.000000,814.000000) scale(0.100000,-0.100000)"
fill="#000000" stroke="none">
<path d="M906 6529 c-16 -5 -33 -6 -37 -3 -5 2 -16 0 -26 -5 -19 -10 -51 -23
-69 -26 -43 -10 -190 -137 -179 -155 3 -4 -2 -11 -11 -14 -8 -3 -12 -10 -9
-16 3 -5 2 -10 -3 -10 -5 0 -9 -6 -10 -12 -1 -7 -4 -29 -7 -48 -4 -19 -7 -54
-9 -78 -1 -33 1 -41 13 -37 11 4 11 2 3 -8 -6 -7 -8 -18 -3 -23 4 -5 14 -25
21 -44 17 -45 103 -129 160 -157 83 -40 113 -51 127 -46 7 3 19 1 26 -4 23
-18 169 -7 234 18 16 6 28 10 28 9 0 -1 11 3 25 8 38 15 121 78 113 85 -3 4 0
7 8 7 13 0 68 76 73 102 7 32 19 44 44 46 36 2 121 19 103 21 -8 0 -11 4 -8 7
4 4 12 2 20 -4 8 -7 18 -7 27 -2 9 6 20 4 29 -3 9 -7 12 -8 8 -1 -4 7 6 11 28
12 19 1 35 -3 35 -8 0 -6 3 -9 8 -9 18 3 33 -2 28 -10 -3 -4 3 -16 14 -26 11
-10 17 -21 15 -25 -9 -15 33 -131 55 -150 12 -10 19 -23 16 -28 -3 -5 8 -15
24 -22 17 -7 30 -17 30 -22 0 -5 5 -6 10 -3 6 3 10 2 10 -2 0 -5 18 -14 40
-19 23 -7 37 -7 33 -2 -3 6 2 6 13 0 11 -5 28 -8 39 -6 11 1 23 -2 27 -9 6 -9
8 -9 8 0 0 6 9 10 20 8 11 -2 22 1 25 6 4 5 11 7 16 3 5 -3 17 0 25 7 8 6 17
9 21 6 7 -7 83 72 83 86 0 5 12 24 26 43 15 19 23 34 20 34 -4 0 0 10 9 23 8
13 12 27 8 30 -3 4 -1 7 6 7 7 0 10 4 6 9 -3 6 2 14 11 19 9 5 15 12 15 15 -3
21 1 27 14 27 9 0 18 6 21 14 5 13 39 12 74 -1 14 -6 38 -12 69 -17 15 -3 17
-6 42 -61 30 -64 170 -178 198 -160 5 3 11 1 13 -5 2 -6 17 -12 33 -15 17 -2
41 -7 55 -10 46 -10 178 0 198 15 1 2 6 3 11 4 5 0 13 4 17 9 4 4 14 7 21 7 8
0 33 13 56 29 l42 29 0 -92 c0 -50 -4 -94 -10 -98 -7 -5 -7 -8 0 -8 6 0 9 -20
7 -47 -4 -68 -9 -78 -27 -63 -11 9 -14 8 -12 -9 1 -12 5 -21 10 -21 5 0 7 -7
4 -15 -4 -8 -3 -16 1 -19 4 -3 9 -22 10 -42 2 -21 6 -41 10 -44 11 -7 9 -522
-2 -538 -4 -7 -5 -16 -2 -19 3 -3 -1 -17 -8 -32 -7 -14 -11 -32 -9 -38 3 -7 0
-13 -6 -13 -6 0 -11 -9 -11 -20 0 -11 -4 -20 -10 -20 -5 0 -10 -6 -10 -13 0
-15 -38 -50 -60 -55 -8 -2 -73 -5 -145 -8 -77 -3 -136 -10 -144 -17 -11 -9
-13 -9 -8 0 5 8 -10 10 -60 7 -38 -3 -105 -6 -150 -7 -46 -1 -83 -5 -83 -9 0
-4 -12 -6 -27 -4 -16 1 -38 -1 -51 -6 -21 -7 -23 -6 -16 14 4 13 11 26 16 29
5 3 9 9 9 13 -1 3 -1 7 0 9 0 1 2 23 3 48 4 51 12 72 27 64 5 -4 9 0 9 7 0 9
3 9 10 -2 6 -10 10 -11 10 -2 0 6 6 12 13 12 7 0 28 18 47 41 34 39 122 93
134 82 3 -4 6 0 6 7 0 7 3 10 7 7 3 -4 16 -1 27 6 12 8 33 17 49 21 15 3 27
11 27 17 0 6 4 8 10 4 5 -3 18 3 30 15 11 11 23 20 28 20 4 1 16 13 27 27 11
14 27 33 36 42 8 10 15 27 14 39 -1 11 3 20 8 19 17 -3 19 30 14 242 -3 118 9
111 -169 98 -32 -3 -58 -2 -58 2 0 6 -18 8 -115 10 -106 3 -164 -14 -214 -61
-17 -15 -26 -17 -34 -9 -6 6 -21 11 -33 11 -12 0 -24 6 -27 13 -2 6 -8 -1 -12
-18 -3 -16 -9 -37 -12 -45 -9 -24 -10 -160 -1 -160 4 0 5 -7 2 -15 -4 -8 -2
-15 3 -15 12 0 11 -40 -1 -59 -6 -9 -5 -12 1 -8 6 4 13 0 17 -8 3 -8 2 -15 -3
-15 -4 0 -8 -7 -8 -15 0 -8 4 -15 9 -15 5 0 4 -9 -2 -20 -6 -11 -7 -20 -3 -20
4 0 8 -38 8 -85 0 -47 -4 -85 -9 -85 -6 0 -5 -5 1 -11 8 -8 8 -20 2 -36 -6
-18 -6 -22 3 -17 7 5 8 3 2 -7 -4 -8 -9 -32 -10 -54 -3 -55 -1 -52 -26 -75
-12 -11 -28 -18 -35 -16 -7 3 -15 1 -18 -4 -3 -5 -14 -7 -25 -5 -11 2 -20 0
-20 -4 0 -5 -12 -7 -27 -5 -15 1 -34 -1 -43 -6 -9 -5 -22 -5 -29 -1 -7 5 -28
5 -46 1 -20 -4 -38 -3 -43 2 -6 6 -46 10 -89 10 -58 0 -87 5 -114 20 -33 18
-35 23 -35 67 -1 26 -4 53 -9 61 -6 9 -4 11 5 5 9 -6 11 -4 5 5 -11 18 -15 60
-6 60 4 0 6 15 4 33 -9 93 -9 108 -2 113 5 3 5 13 0 22 -11 24 -6 115 12 189
8 34 12 64 9 67 -3 3 -5 35 -4 70 1 64 -8 84 -35 80 -7 -1 -14 -2 -15 -4 -8
-6 -37 -7 -35 -1 7 26 -128 122 -178 126 -5 0 -16 4 -22 8 -7 5 -13 6 -13 2 0
-3 -9 -1 -19 5 -14 7 -21 6 -24 -3 -3 -6 -6 -7 -6 -1 -1 13 -145 8 -149 -6 -2
-5 -8 -7 -13 -4 -6 3 -16 0 -24 -6 -8 -7 -15 -9 -15 -4 0 5 -5 1 -11 -8 -5
-10 -16 -18 -22 -18 -25 0 -87 -84 -87 -118 0 -13 -3 -21 -7 -19 -10 6 -10
-54 0 -70 4 -6 3 -14 -3 -18 -5 -3 -10 -13 -10 -21 0 -8 4 -12 10 -9 6 4 7 -2
1 -17 -6 -16 -5 -29 5 -42 7 -11 11 -23 8 -27 -3 -5 0 -9 6 -9 6 0 9 -4 5 -10
-8 -12 26 -51 38 -43 6 3 7 1 3 -5 -4 -7 -2 -12 3 -12 6 0 11 -7 11 -15 0 -8
17 -22 38 -32 20 -9 43 -23 50 -30 8 -7 18 -11 23 -8 5 4 9 2 9 -3 0 -4 16
-14 35 -22 19 -8 35 -16 35 -19 0 -3 18 -17 40 -31 22 -13 40 -27 40 -30 0 -4
14 -22 30 -40 17 -18 30 -40 30 -48 0 -8 6 -12 14 -9 8 3 17 -1 20 -9 3 -9 10
-13 15 -9 5 3 12 1 16 -5 3 -5 11 -10 16 -10 6 0 7 5 4 10 -3 6 -2 10 4 10 11
0 22 -30 27 -74 1 -17 5 -43 7 -58 5 -31 8 -31 -108 -28 -38 1 -78 6 -88 12
-14 7 -17 7 -13 -1 9 -14 -26 -1 -36 13 -5 7 -8 7 -8 -2 0 -8 -5 -10 -12 -5
-21 13 -50 14 -42 2 4 -8 0 -8 -15 0 -13 7 -21 8 -21 2 0 -6 -16 -9 -36 -7
-19 1 -37 -1 -40 -6 -3 -5 -10 -5 -17 -1 -6 3 -69 8 -141 9 -80 2 -132 7 -134
14 -2 5 -7 8 -11 5 -11 -6 -111 92 -118 115 -1 3 -7 18 -13 34 -6 16 -12 38
-15 50 -2 11 -4 22 -6 24 -1 1 -2 6 -3 11 0 5 -4 13 -8 17 -4 4 -3 13 3 21 8
9 8 13 1 13 -7 0 -10 18 -7 50 3 32 1 50 -6 50 -8 0 -8 4 0 13 6 8 8 17 4 20
-7 8 -10 97 -3 97 4 0 11 42 13 93 1 9 5 17 9 17 4 0 8 7 8 15 0 18 42 108 55
117 7 5 7 8 0 8 -7 0 -7 3 0 8 6 4 19 25 30 47 11 22 24 43 29 47 12 8 16 37
6 43 -9 6 -59 -31 -79 -59 -8 -11 -23 -28 -33 -38 -10 -10 -16 -18 -13 -18 3
0 -4 -11 -17 -24 -36 -37 -58 -65 -58 -75 0 -5 -7 -14 -15 -21 -8 -6 -31 -37
-51 -68 -21 -32 -40 -59 -44 -62 -3 -3 -12 -20 -19 -37 -8 -18 -17 -33 -22
-33 -5 0 -9 -6 -9 -13 0 -7 -15 -35 -32 -63 -33 -50 -46 -73 -70 -116 -7 -13
-15 -25 -18 -28 -3 -3 -14 -22 -25 -44 -11 -21 -28 -43 -37 -50 -10 -6 -18
-16 -18 -23 0 -7 -5 -13 -11 -13 -7 0 -20 -9 -29 -20 -17 -20 -17 -21 9 -49
15 -16 38 -43 52 -61 13 -17 31 -39 39 -50 8 -10 24 -31 35 -46 11 -15 32 -40
47 -55 16 -15 28 -31 28 -36 0 -4 16 -24 35 -43 19 -19 35 -38 35 -42 0 -4 13
-21 30 -36 16 -16 30 -33 30 -37 0 -4 11 -18 26 -31 14 -13 22 -24 18 -24 -4
0 3 -8 14 -19 12 -10 22 -21 22 -25 0 -3 8 -14 18 -24 9 -10 31 -35 47 -56 17
-22 39 -47 49 -57 11 -11 17 -19 14 -19 -4 0 8 -15 25 -33 18 -19 39 -44 47
-57 8 -12 20 -28 26 -34 21 -23 35 -57 39 -99 2 -23 5 -44 6 -47 5 -14 3 -66
-3 -70 -3 -3 -9 -25 -12 -50 -2 -25 -5 -45 -6 -45 -1 0 -3 -18 -4 -40 -1 -22
-8 -60 -15 -85 -7 -25 -14 -52 -16 -60 -2 -8 -9 -28 -16 -45 -7 -16 -13 -33
-13 -37 -1 -3 -4 -10 -8 -14 -5 -4 -8 -16 -8 -26 0 -10 -5 -18 -10 -18 -6 0
-9 -3 -8 -7 1 -5 -4 -21 -11 -37 -11 -28 -10 -32 19 -59 42 -40 56 -75 61
-158 1 -24 5 -48 7 -53 3 -5 6 -28 6 -50 1 -23 4 -45 7 -51 2 -5 5 -35 4 -65
0 -30 3 -57 6 -60 4 -3 9 -34 13 -70 6 -80 15 -146 22 -180 3 -14 6 -31 6 -37
1 -7 5 -13 9 -13 4 0 5 -9 2 -20 -3 -11 -1 -26 5 -33 6 -7 12 -30 14 -50 1
-20 5 -37 9 -37 4 0 2 -13 -4 -29 l-11 -29 -85 4 c-128 7 -141 9 -141 14 0 3
-11 6 -24 6 -23 2 -159 49 -244 85 -23 10 -45 18 -49 18 -3 0 -9 3 -12 8 -5 7
-30 22 -96 57 -11 6 -22 13 -25 16 -3 3 -17 13 -32 23 -49 31 -62 24 -107 -63
-23 -44 -38 -80 -34 -80 5 0 2 -4 -6 -9 -13 -9 -20 -27 -23 -58 -1 -7 -5 -13
-9 -13 -6 0 -21 -40 -23 -65 -1 -11 80 -55 102 -55 6 0 12 -4 12 -9 0 -5 10
-12 23 -16 12 -4 24 -8 27 -9 3 -1 16 -8 30 -16 14 -8 27 -15 30 -16 3 0 21
-7 40 -15 19 -7 38 -12 42 -11 5 1 8 -2 8 -6 0 -5 6 -9 13 -9 10 0 77 -22 305
-98 7 -3 13 -5 15 -5 73 -24 150 -31 363 -34 104 -2 194 -4 199 -6 6 -1 12 -1
15 0 16 8 70 5 70 -4 0 -7 3 -8 8 -1 9 13 92 15 92 3 0 -5 5 -6 12 -2 18 12
58 11 58 -1 0 -6 3 -7 8 0 8 12 82 14 82 3 0 -5 5 -8 11 -8 5 0 8 4 5 8 -6 10
61 8 71 -1 3 -4 12 -2 20 4 10 9 13 8 13 0 0 -7 5 -9 12 -5 14 9 76 10 84 1 4
-3 15 -2 25 4 11 6 19 6 19 0 0 -5 14 -6 35 -1 20 5 33 4 29 -1 -7 -12 39 -6
48 6 5 7 8 7 8 0 0 -6 90 -10 250 -10 160 0 250 -4 250 -10 0 -7 3 -7 8 0 6 9
22 11 47 5 6 -1 15 -1 20 0 31 7 75 4 79 -5 3 -6 5 -6 5 0 1 6 49 10 125 9
l125 -1 7 31 c4 17 9 38 11 46 8 29 13 65 15 93 0 15 5 30 10 33 4 3 6 9 3 13
-2 5 2 33 9 62 8 30 17 72 21 94 8 49 13 70 16 70 1 0 3 9 5 20 1 11 6 34 10
50 4 17 7 47 8 67 1 21 3 38 6 38 3 0 7 15 8 33 1 18 5 44 7 57 3 14 8 42 10
64 2 21 7 46 10 55 5 16 16 89 20 127 1 11 5 25 9 32 4 7 5 12 3 12 -3 0 -1
17 4 38 5 20 11 74 14 118 3 59 10 91 24 115 21 35 29 99 11 99 -5 0 -12 16
-16 35 -3 19 -10 32 -15 30 -4 -3 -6 4 -4 15 2 11 0 20 -6 20 -5 0 -9 9 -9 20
0 11 -4 20 -8 20 -4 0 -8 8 -9 18 -3 34 -8 57 -14 62 -4 3 -9 21 -12 40 -3 19
-10 52 -15 72 -7 26 -6 38 2 42 8 3 7 5 -1 5 -7 1 -10 8 -7 16 4 8 2 15 -2 15
-5 0 -8 37 -8 83 1 45 3 82 4 82 1 0 3 11 6 24 4 21 38 78 54 91 4 3 24 27 44
54 31 41 36 45 32 22 -3 -14 -1 -26 4 -26 5 0 5 -13 0 -30 -6 -21 -5 -30 3
-30 8 0 8 -3 0 -11 -6 -6 -7 -25 -3 -49 4 -24 3 -43 -3 -49 -8 -8 -7 -11 1
-11 8 0 9 -7 2 -25 -5 -14 -6 -25 -2 -25 4 0 7 -213 7 -473 l1 -472 394 2
c217 2 668 4 1003 7 441 2 609 0 614 -8 8 -12 9 -39 16 -288 3 -86 8 -161 11
-167 4 -5 2 -12 -2 -15 -5 -3 -5 -31 0 -63 5 -32 10 -93 11 -135 3 -91 19 -83
-180 -83 -79 0 -143 -2 -143 -5 0 -3 -15 -5 -32 -6 -41 -1 -88 -9 -153 -24
-27 -7 -54 -13 -60 -14 -54 -12 -155 -56 -155 -68 0 -4 -6 -8 -12 -8 -7 -1
-27 -13 -45 -28 l-32 -28 479 1 c263 0 482 4 486 8 4 4 12 3 18 -2 17 -14 28
-14 37 1 5 7 9 8 9 3 0 -7 24 -10 63 -8 83 4 77 4 120 0 20 -2 37 0 37 5 0 5
5 6 11 2 17 -10 159 -10 163 1 3 6 5 5 5 -2 1 -8 10 -9 30 -3 15 4 34 4 41 0
7 -5 24 -4 37 1 15 5 22 5 18 0 -3 -6 6 -6 25 -1 20 6 30 5 30 -2 0 -7 5 -6
14 1 10 9 16 9 21 1 5 -8 10 -8 20 0 10 8 15 8 20 0 5 -8 10 -8 20 0 10 8 15
8 20 0 5 -8 10 -8 20 0 9 8 15 8 20 0 3 -6 10 -8 15 -5 18 11 69 12 74 1 3 -7
7 -8 13 -1 9 12 44 12 63 0 8 -5 11 -4 7 2 -3 5 8 9 28 9 19 -1 35 -5 35 -9 0
-4 8 -4 18 1 20 10 32 10 50 -1 6 -5 12 -4 12 1 0 10 91 9 108 -2 7 -4 12 -3
12 1 0 5 43 8 95 7 73 0 95 2 95 13 0 7 -9 13 -20 13 -11 0 -20 4 -20 9 0 15
-176 95 -190 86 -5 -3 -14 0 -22 7 -12 12 -32 18 -68 20 -8 0 -19 4 -25 8 -15
11 -119 23 -225 25 -158 4 -199 8 -203 19 -4 11 -2 257 3 266 1 3 1 10 0 15
-7 34 -7 86 1 91 5 3 6 10 3 16 -12 20 -12 318 0 319 6 1 21 0 33 0 11 -1 24
3 28 9 3 5 12 7 18 3 19 -12 67 -12 67 -1 0 7 4 7 13 -1 12 -9 21 -9 62 -1 6
1 12 1 15 0 15 -7 71 -6 76 2 3 4 10 5 17 1 17 -10 57 -10 57 0 0 6 5 6 13 1
15 -11 38 -11 55 -1 6 5 12 4 12 0 0 -10 61 -10 78 1 7 4 12 2 12 -4 0 -6 5
-8 11 -5 14 9 79 12 79 4 0 -4 16 -3 35 1 19 4 35 5 35 1 0 -3 11 -6 25 -6 14
0 25 2 25 5 0 3 279 5 619 5 618 -1 619 -1 612 20 -6 18 -7 116 -1 140 1 6 1
12 0 15 -6 16 -4 142 2 147 5 2 5 10 1 16 -11 18 -11 80 0 95 5 6 6 12 1 12
-5 0 -10 494 -11 1128 -2 620 -3 1134 -3 1142 0 8 0 35 -1 60 0 25 -2 144 -3
266 -2 121 -6 226 -10 232 -4 7 -3 12 3 12 5 0 9 9 8 20 -1 11 -5 20 -10 20
-4 0 -5 6 0 13 10 16 11 28 1 55 -5 15 -4 21 2 17 6 -3 10 -2 10 4 0 5 -5 13
-10 16 -7 4 -7 12 0 25 6 12 7 21 0 25 -5 3 -508 6 -1117 7 -612 1 -1113 5
-1120 10 -6 5 -14 5 -17 -1 -4 -6 -15 -7 -30 -1 -12 4 -29 4 -36 0 -8 -5 -21
-5 -30 0 -9 5 -22 5 -30 0 -9 -5 -19 -5 -26 1 -8 7 -14 6 -19 -1 -3 -6 -12 -7
-18 -3 -18 11 -36 12 -43 2 -3 -5 -13 -5 -25 1 -12 7 -19 7 -19 1 0 -13 -53
-9 -62 4 -5 6 -8 6 -8 -2 0 -8 -9 -9 -27 -4 -16 5 -37 5 -48 1 -11 -4 -26 -3
-32 2 -7 6 -13 7 -13 2 0 -5 -20 -9 -45 -9 -25 0 -45 4 -45 9 0 5 -6 3 -13 -3
-8 -6 -17 -8 -21 -4 -11 12 -36 12 -36 0 0 -8 -3 -8 -10 -1 -7 7 -29 8 -55 4
-25 -4 -45 -4 -45 -1 0 8 -76 5 -89 -4 -6 -3 -11 -3 -11 2 0 4 -27 8 -60 8
-33 0 -60 -4 -60 -8 0 -5 -6 -5 -12 -1 -21 13 -1608 13 -1609 0 -1 -6 -1 -14
0 -18 2 -14 -11 -8 -49 22 -21 17 -45 30 -53 30 -9 0 -19 5 -22 10 -3 6 -19
10 -35 10 -16 0 -31 4 -34 9 -3 5 -19 8 -36 7 -16 -1 -30 1 -30 6 0 4 -6 5
-12 3 -7 -3 -35 -7 -63 -9 -27 -3 -57 -7 -65 -9 -8 -3 -30 -8 -47 -12 -18 -4
-33 -11 -33 -16 0 -5 -7 -9 -15 -9 -15 0 -26 -8 -92 -64 -33 -28 -69 -83 -65
-98 1 -5 -3 -8 -8 -8 -5 0 -9 -3 -8 -7 1 -5 -2 -20 -7 -36 -5 -18 -11 -25 -19
-19 -6 5 -28 8 -48 7 -21 -1 -38 1 -38 4 0 6 -49 9 -185 13 -27 1 -53 7 -57
12 -5 7 -8 6 -8 -2 0 -8 -5 -10 -12 -5 -18 11 -58 12 -58 1 0 -5 -8 -5 -17 0
-10 5 -40 9 -68 8 -27 -1 -60 2 -72 6 -13 4 -23 4 -23 -1 0 -12 -33 -9 -42 4
-5 6 -8 6 -8 -1 0 -6 -15 -10 -35 -9 -19 2 -38 -2 -41 -7 -4 -6 -10 -5 -15 3
-6 10 -11 11 -16 3 -5 -6 -20 -10 -35 -10 -16 1 -28 -1 -28 -4 0 -4 -10 -6
-22 -5 -13 1 -29 -2 -35 -8 -9 -6 -13 -6 -13 3 0 9 -3 10 -13 1 -8 -6 -23 -9
-35 -6 -12 2 -22 1 -22 -3 0 -4 -17 -8 -38 -9 -20 -1 -56 -4 -78 -8 -41 -6
-41 -5 -47 29 -10 60 -38 109 -95 164 -50 49 -112 91 -112 77 0 -4 -7 1 -16 9
-8 9 -26 16 -40 16 -13 0 -24 3 -24 8 0 4 -26 8 -58 10 -31 2 -68 4 -82 6 -14
1 -38 -1 -54 -5z m-256 -488 c0 -12 96 -112 102 -105 3 2 11 -2 17 -10 17 -21
-14 -15 -40 7 -10 9 -23 17 -27 17 -11 0 -66 68 -68 85 -1 8 2 15 7 15 5 0 9
-4 9 -9z m935 -1835 c22 -3 40 -5 40 -7 0 -1 32 -3 72 -4 40 -1 112 -6 160
-11 113 -10 383 -11 390 -1 2 4 10 4 16 0 17 -11 37 -13 37 -4 0 4 14 7 30 6
17 -1 33 1 35 5 3 4 15 6 27 6 13 -1 31 2 41 6 11 6 17 5 18 -4 0 -9 2 -10 5
-1 5 10 52 9 63 -3 15 -14 5 -37 -27 -65 -21 -17 -56 -47 -80 -67 -24 -20 -55
-47 -69 -60 -15 -12 -49 -41 -76 -65 -28 -23 -55 -47 -61 -53 -12 -12 -12 -12
-111 -14 -73 -1 -100 2 -111 13 -4 3 -16 1 -27 -4 -15 -8 -22 -8 -28 2 -6 9
-9 10 -9 2 0 -8 -9 -9 -30 -3 -19 5 -30 5 -30 -1 0 -6 -6 -7 -12 -2 -7 4 -21
6 -31 5 -18 -3 -86 46 -140 100 -15 15 -29 28 -32 28 -6 0 -52 40 -97 82 -15
15 -28 25 -28 23 0 -3 -16 11 -35 30 -20 18 -34 40 -33 47 4 16 34 26 68 22
14 -2 43 -6 65 -8z m1145 -166 c0 -5 -5 -10 -11 -10 -5 0 -7 5 -4 10 3 6 8 10
11 10 2 0 4 -4 4 -10z m-1457 -1316 c96 -102 246 -253 283 -284 16 -14 52 -43
79 -65 28 -22 52 -42 55 -45 3 -3 34 -28 70 -55 61 -47 71 -55 102 -81 7 -6
22 -15 33 -22 15 -8 -46 -10 -245 -6 -374 7 -354 5 -360 39 -1 6 -6 18 -12 28
-10 19 -16 43 -23 87 -2 14 -8 36 -13 50 -5 14 -10 28 -10 33 0 4 -5 38 -11
75 -6 37 -13 87 -15 112 -2 25 -5 45 -6 45 -1 0 -3 32 -5 72 -2 40 -6 77 -10
83 -3 5 -1 10 5 10 6 0 44 -34 83 -76z m1511 9 c-4 -38 -7 -94 -8 -125 0 -32
-3 -58 -6 -58 -4 0 -7 -10 -8 -22 -5 -60 -9 -85 -16 -96 -4 -7 -4 -16 -1 -22
3 -5 3 -16 -2 -22 -4 -7 -14 -38 -20 -68 -27 -120 -38 -145 -61 -147 -9 -1
-132 -5 -272 -8 -140 -2 -271 -7 -290 -9 -32 -4 -33 -3 -15 10 55 40 81 61 97
77 10 9 18 14 18 10 0 -5 4 -3 8 2 4 6 41 37 82 70 115 93 120 97 171 146 27
26 51 44 54 41 3 -3 5 2 5 12 0 9 3 15 8 13 4 -2 23 15 42 39 19 23 41 43 48
43 6 1 12 6 12 12 0 7 19 31 43 55 23 23 58 59 77 78 19 20 35 36 37 36 2 0 1
-30 -3 -67z m-804 -163 c3 -2 8 -2 13 -1 4 0 7 -4 7 -10 0 -8 5 -8 15 1 12 10
15 10 15 -2 0 -8 -10 -19 -22 -24 -19 -8 -28 -5 -51 18 -27 27 -27 28 -5 24
13 -3 25 -5 28 -6z"/>
</g>
</svg>
