<svg id="_x30_7_Clip_Board" enable-background="new 0 0 48 48" height="512" viewBox="0 0 48 48" width="512" xmlns="http://www.w3.org/2000/svg"><g><g><g><path d="m10.4 8.4c-1.5 0-2.7 1.2-2.7 2.7v34.2c0 1.5 1.2 2.7 2.7 2.7h27.2c1.5 0 2.7-1.2 2.7-2.7v-34.2c0-1.5-1.2-2.7-2.7-2.7h-3.4v.9c0 1.2-1 2.2-2.2 2.2h-16c-1.2 0-2.2-1-2.2-2.2v-.9z"/><path d="m28.7 5.3c-.6 0-1.1-.5-1.1-1.1v-.6c0-1-.4-1.9-1.1-2.5-.8-.8-2-1.2-3.2-1-.8.1-1.6.6-2.1 1.3-.6.7-.9 1.6-.9 2.5 0 .8-.7 1.5-1.5 1.5h-2.8v3.9h16v-4zm-4.7-.3c-.9 0-1.6-.7-1.6-1.6s.7-1.6 1.6-1.6 1.6.7 1.6 1.6-.7 1.6-1.6 1.6z"/></g></g></g></svg>